<svg width="807" height="521" viewBox="0 0 807 521" fill="none" xmlns="http://www.w3.org/2000/svg">
<g clip-path="url(#clip0_806_64)">
<path d="M771.794 133.956H124.174C118.159 133.963 112.392 136.356 108.138 140.609C103.884 144.863 101.492 150.63 101.484 156.646V498.266C101.479 504.046 103.691 509.607 107.664 513.806C108.064 514.236 108.484 514.646 108.914 515.026C113.077 518.846 118.524 520.963 124.174 520.956H771.794C777.81 520.948 783.577 518.555 787.83 514.302C792.084 510.048 794.477 504.281 794.484 498.266C810.308 384.942 810.308 269.969 794.484 156.645C794.477 150.63 792.084 144.863 787.83 140.609C783.577 136.356 777.81 133.963 771.794 133.956Z" fill="#F2F2F2"/>
<path d="M741.794 97.9557H94.1743C88.1587 97.9629 82.3916 100.356 78.138 104.609C73.8844 108.863 71.4915 114.63 71.4843 120.646V462.266C71.4794 468.046 73.6913 473.608 77.6643 477.806C78.0643 478.236 78.4843 478.646 78.9143 479.026C83.077 482.846 88.5238 484.963 94.1743 484.956H741.794C747.81 484.948 753.577 482.556 757.831 478.302C762.084 474.048 764.477 468.281 764.484 462.266V120.646C764.477 114.63 762.084 108.863 757.831 104.609C753.577 100.356 747.81 97.9629 741.794 97.9557Z" fill="white"/>
<path d="M475.524 325.615C475.059 325.637 474.599 325.515 474.206 325.266C473.813 325.017 473.505 324.653 473.326 324.224C473.146 323.795 473.103 323.32 473.202 322.866C473.301 322.411 473.537 321.998 473.879 321.682L474.035 321.064C474.014 321.014 473.994 320.965 473.973 320.915C473.505 319.809 472.72 318.866 471.717 318.205C470.715 317.543 469.539 317.193 468.338 317.197C467.137 317.202 465.964 317.561 464.967 318.23C463.969 318.899 463.192 319.848 462.731 320.957C460.893 325.385 458.552 329.821 457.976 334.503C457.722 336.573 457.829 338.671 458.292 340.704C453.974 331.284 451.731 321.045 451.717 310.683C451.716 308.082 451.861 305.484 452.15 302.9C452.389 300.781 452.72 298.678 453.144 296.589C455.459 285.258 460.428 274.638 467.645 265.6C471.137 263.694 473.962 260.764 475.738 257.203C476.381 255.924 476.836 254.557 477.087 253.147C476.693 253.199 475.602 247.199 475.899 246.83C475.35 245.997 474.367 245.583 473.768 244.77C470.785 240.727 466.676 241.433 464.531 246.927C459.949 249.24 459.905 253.075 462.716 256.764C464.505 259.111 464.751 262.286 466.32 264.799C466.159 265.006 465.991 265.206 465.83 265.413C462.878 269.208 460.305 273.284 458.149 277.581C458.673 272.767 458.047 267.897 456.322 263.372C454.574 259.154 451.297 255.602 448.412 251.957C447.649 250.977 446.612 250.246 445.433 249.856C444.255 249.465 442.987 249.433 441.79 249.763C440.593 250.093 439.521 250.77 438.709 251.71C437.897 252.649 437.381 253.808 437.228 255.04C437.222 255.094 437.216 255.147 437.21 255.201C437.639 255.443 438.059 255.7 438.469 255.971C438.985 256.316 439.384 256.808 439.615 257.383C439.847 257.959 439.898 258.591 439.764 259.196C439.63 259.802 439.316 260.353 438.864 260.777C438.411 261.201 437.841 261.478 437.228 261.573L437.165 261.582C437.318 263.127 437.588 264.658 437.973 266.162C434.271 280.478 442.263 285.692 453.674 285.926C453.926 286.055 454.171 286.184 454.423 286.307C452.257 292.448 450.897 298.844 450.38 305.335C450.087 309.164 450.104 313.011 450.432 316.838L450.412 316.702C449.586 312.447 447.316 308.608 443.986 305.832C439.04 301.769 432.053 300.273 426.718 297.008C426.15 296.644 425.491 296.45 424.817 296.448C424.143 296.446 423.483 296.637 422.914 296.999C422.346 297.36 421.892 297.876 421.607 298.487C421.322 299.098 421.218 299.777 421.306 300.445L421.328 300.588C422.123 300.911 422.898 301.285 423.647 301.705C424.075 301.947 424.495 302.203 424.905 302.475C425.421 302.819 425.821 303.312 426.052 303.887C426.283 304.463 426.335 305.095 426.201 305.7C426.067 306.306 425.753 306.857 425.3 307.281C424.847 307.705 424.277 307.982 423.664 308.077L423.602 308.086C423.556 308.093 423.518 308.099 423.472 308.106C424.831 311.351 426.739 314.337 429.111 316.935C431.426 329.432 441.367 330.618 452.001 326.978H452.008C453.174 332.049 454.865 336.984 457.052 341.705H475.072C475.137 341.504 475.195 341.298 475.253 341.098C473.585 341.202 471.911 341.103 470.267 340.801C471.604 339.16 472.941 337.506 474.278 335.866C474.308 335.835 474.336 335.803 474.362 335.769C475.04 334.929 475.725 334.096 476.403 333.257L476.403 333.256C476.439 330.682 476.144 328.114 475.524 325.616L475.524 325.615Z" fill="#F2F2F2"/>
<path d="M764.484 356.956V393.266C764.477 399.281 762.084 405.048 757.831 409.302C753.577 413.556 747.81 415.948 741.794 415.956H94.1743C88.5238 415.963 83.077 413.846 78.9143 410.026C78.4843 409.646 78.0643 409.236 77.6643 408.806C73.6913 404.607 71.4794 399.046 71.4843 393.266V356.956C268.636 324.396 511.095 335.419 764.484 356.956Z" fill="#3F3D56"/>
<path d="M764.484 396.956V433.266C764.477 439.281 762.084 445.048 757.831 449.302C753.577 453.555 747.81 455.948 741.794 455.956H94.1743C88.5238 455.963 83.077 453.846 78.9143 450.025C78.4843 449.645 78.0643 449.236 77.6643 448.806C73.6913 444.607 71.4794 439.046 71.4843 433.266V396.956C252.954 372.672 499.901 380.491 764.484 396.956Z" fill="white"/>
<path d="M764.484 425.956V462.266C764.477 468.281 762.084 474.048 757.831 478.302C753.577 482.556 747.81 484.948 741.794 484.956H94.1743C88.5238 484.963 83.077 482.846 78.9143 479.026C78.4843 478.646 78.0643 478.236 77.6643 477.806C73.6913 473.608 71.4794 468.046 71.4843 462.266V425.956C267.835 405.565 507.058 410.404 764.484 425.956Z" fill="#3F3D56"/>
<path d="M710.524 320.615C710.059 320.637 709.599 320.515 709.206 320.266C708.813 320.017 708.505 319.653 708.326 319.224C708.146 318.795 708.103 318.32 708.202 317.866C708.301 317.411 708.537 316.998 708.879 316.682L709.035 316.064C709.014 316.014 708.994 315.965 708.973 315.915C708.505 314.809 707.72 313.866 706.717 313.205C705.715 312.543 704.539 312.193 703.338 312.197C702.137 312.202 700.964 312.561 699.967 313.23C698.969 313.899 698.192 314.848 697.731 315.957C695.893 320.385 693.552 324.821 692.976 329.503C692.722 331.573 692.829 333.671 693.292 335.704C688.974 326.284 686.731 316.045 686.717 305.683C686.716 303.082 686.861 300.484 687.15 297.9C687.389 295.781 687.72 293.678 688.144 291.589C690.459 280.258 695.428 269.638 702.645 260.6C706.137 258.694 708.962 255.764 710.738 252.203C711.381 250.924 711.836 249.557 712.087 248.147C711.693 248.199 710.602 242.199 710.899 241.83C710.35 240.997 709.367 240.583 708.768 239.77C705.785 235.727 701.676 236.433 699.531 241.927C694.949 244.24 694.905 248.075 697.716 251.764C699.505 254.111 699.751 257.286 701.32 259.799C701.159 260.006 700.991 260.206 700.83 260.413C697.878 264.208 695.305 268.284 693.149 272.581C693.673 267.767 693.047 262.897 691.322 258.372C689.574 254.154 686.297 250.602 683.412 246.957C682.649 245.977 681.612 245.246 680.433 244.856C679.255 244.465 677.987 244.433 676.79 244.763C675.593 245.093 674.521 245.77 673.709 246.71C672.897 247.649 672.381 248.808 672.228 250.04C672.222 250.094 672.216 250.147 672.21 250.201C672.639 250.443 673.059 250.7 673.469 250.971C673.985 251.316 674.384 251.808 674.615 252.383C674.847 252.959 674.898 253.591 674.764 254.196C674.63 254.802 674.316 255.353 673.864 255.777C673.411 256.201 672.841 256.478 672.228 256.573L672.165 256.582C672.318 258.127 672.588 259.658 672.973 261.162C669.271 275.478 677.263 280.692 688.674 280.926C688.926 281.055 689.171 281.184 689.423 281.307C687.257 287.448 685.897 293.844 685.38 300.335C685.087 304.164 685.104 308.011 685.432 311.838L685.412 311.702C684.586 307.447 682.316 303.608 678.986 300.832C674.04 296.769 667.053 295.273 661.718 292.008C661.15 291.644 660.491 291.45 659.817 291.448C659.143 291.446 658.483 291.637 657.914 291.999C657.346 292.36 656.892 292.876 656.607 293.487C656.322 294.098 656.218 294.777 656.306 295.445L656.328 295.588C657.123 295.911 657.898 296.285 658.647 296.705C659.075 296.947 659.495 297.203 659.905 297.475C660.421 297.819 660.821 298.312 661.052 298.887C661.283 299.463 661.335 300.095 661.201 300.7C661.067 301.306 660.753 301.857 660.3 302.281C659.847 302.705 659.277 302.982 658.664 303.077L658.602 303.086C658.556 303.093 658.518 303.099 658.472 303.106C659.831 306.351 661.739 309.337 664.111 311.935C666.426 324.432 676.367 325.618 687.001 321.978H687.008C688.174 327.049 689.865 331.984 692.052 336.705H710.072C710.137 336.504 710.195 336.298 710.253 336.098C708.585 336.202 706.911 336.103 705.267 335.801C706.604 334.16 707.941 332.506 709.278 330.866C709.308 330.835 709.336 330.803 709.362 330.769C710.04 329.929 710.725 329.096 711.403 328.257L711.403 328.256C711.439 325.682 711.144 323.114 710.524 320.616L710.524 320.615Z" fill="#F2F2F2"/>
<path d="M699.018 361.981C699.018 362.308 699.013 362.634 699.008 362.956H633.097C631.59 362.957 630.098 362.648 628.714 362.049C627.33 361.45 626.085 360.573 625.054 359.472C625.078 359.014 625.117 358.561 625.166 358.108C627.105 339.483 651.344 311.409 661.992 324.956C672.639 338.503 699.018 341.534 699.018 361.981Z" fill="#3F3D56"/>
<path d="M734.094 362.277C734.098 362.504 734.091 362.732 734.088 362.956H688.147C687.096 362.956 686.056 362.741 685.092 362.324C684.128 361.906 683.259 361.295 682.541 360.528C682.558 360.208 682.585 359.893 682.619 359.577C683.971 346.595 704.461 323.688 708.287 336.469C718.038 369.047 733.895 349.47 734.094 362.277Z" fill="#3F3D56"/>
<path d="M741.794 97.9557H94.1743C88.1587 97.9629 82.3916 100.356 78.138 104.609C73.8844 108.863 71.4915 114.63 71.4843 120.646V462.266C71.4794 468.046 73.6913 473.608 77.6643 477.806C78.0643 478.236 78.4843 478.646 78.9143 479.026C83.077 482.846 88.5238 484.963 94.1743 484.956H741.794C747.81 484.948 753.577 482.556 757.83 478.302C762.084 474.048 764.477 468.281 764.484 462.266C795.595 374.43 784.655 251.401 764.484 120.646C764.477 114.63 762.084 108.863 757.83 104.609C753.577 100.356 747.81 97.963 741.794 97.9557ZM762.484 352.436C762.484 387.052 748.733 420.25 724.256 444.727C699.779 469.205 666.581 482.956 631.965 482.956H94.1743C89.3096 482.964 84.5999 481.245 80.8843 478.106C79.7858 477.176 78.784 476.137 77.8943 475.006C75.0297 471.378 73.4756 466.888 73.4843 462.266V120.646C73.4843 115.158 75.6641 109.896 79.5442 106.016C83.4243 102.136 88.6869 99.9557 94.1743 99.9557H569.787C676.211 99.9557 762.484 186.229 762.484 292.653V352.436Z" fill="#3F3D56"/>
<path d="M217.644 437.899C217.649 438.253 217.639 438.607 217.634 438.956H146.201C144.567 438.957 142.95 438.622 141.451 437.973C139.951 437.324 138.601 436.373 137.484 435.18C137.511 434.684 137.553 434.193 137.606 433.702C139.707 413.517 160.516 409.661 177.517 397.772C196.648 384.393 217.296 414.204 217.644 437.899Z" fill="#3F3D56"/>
<path d="M233.484 429.244C233.332 429.438 233.481 429.737 233.477 429.98H183.688C182.549 429.981 181.422 429.747 180.377 429.295C179.331 428.842 178.39 428.18 177.612 427.348C177.63 427.002 177.66 426.66 177.696 426.318C179.161 412.249 191.061 401.692 205.515 401.275C232.459 400.497 246.315 412.931 233.484 429.244Z" fill="#3F3D56"/>
<path d="M240.644 349.9C240.644 350.253 240.639 350.607 240.634 350.956H169.201C167.567 350.957 165.95 350.622 164.451 349.973C162.951 349.324 161.601 348.373 160.484 347.18C160.511 346.684 160.553 346.193 160.606 345.702C162.707 325.517 185.394 319.041 200.517 309.772C215.639 300.503 240.644 327.74 240.644 349.9Z" fill="#3F3D56"/>
<path d="M256.484 341.244C256.459 341.488 256.457 341.735 256.477 341.98H206.688C205.549 341.981 204.422 341.748 203.377 341.295C202.331 340.842 201.39 340.18 200.612 339.348C200.63 339.002 200.66 338.66 200.696 338.318C202.161 324.249 214.84 317.975 228.515 313.275C251.099 305.511 260.435 321.501 256.484 341.244Z" fill="#3F3D56"/>
<path d="M290.484 355.219C290.497 355.465 290.495 355.711 290.477 355.956H240.688C239.549 355.957 238.422 355.723 237.377 355.271C236.331 354.818 235.39 354.156 234.612 353.324C234.63 352.978 234.66 352.636 234.696 352.294C236.161 338.225 252.423 337.605 262.515 327.25C271.865 317.656 288.444 336.564 290.484 355.219Z" fill="#3F3D56"/>
<path d="M582.484 239.956H562.484V484.956H582.484V239.956Z" fill="#3F3D56"/>
<path d="M714.564 130.196C713.824 115.736 708.904 101.216 699.234 90.4456C695.014 85.7456 677.174 74.7256 671.484 71.9556C673.644 54.9656 685.264 45.1656 676.764 30.6356C665.974 12.2056 643.464 1.39562 622.334 4.50562C614.772 5.65737 607.551 8.44186 601.174 12.6656C593.874 6.2856 583.884 2.36561 574.154 0.87561C543.504 -3.82439 510.734 10.7256 493.674 36.6156C491.095 40.5291 490.92 46.3853 492.264 53.3664C497.445 80.2733 482.599 106.498 457.061 116.429C456.57 116.61 456.124 116.895 455.754 117.266C441.014 132.516 436.174 156.576 443.884 176.346C445.708 181.026 446.251 189.162 451.251 189.382C483.547 190.804 486.021 208.432 467.708 234.642C463.873 240.129 469.444 247.881 472.914 253.716C480.894 267.146 497.004 274.046 512.604 274.966C528.134 275.886 543.474 271.776 558.484 267.686L578.484 266.886C595.694 269.856 613.694 269.386 630.004 263.226C647.594 256.576 662.934 242.716 668.754 224.836C670.744 218.726 704.994 226.386 704.484 219.956C713.004 215.606 687.244 195.566 693.694 188.486C708.067 172.569 715.569 151.618 714.564 130.196Z" fill="#0CD3DD"/>
<path opacity="0.1" d="M637.997 234.603C633.392 248.748 622.821 260.359 609.9 267.893C616.43 267.094 622.842 265.527 629.004 263.226C643.99 257.56 657.32 246.649 664.544 232.49C654.394 232.5 639.298 230.607 637.997 234.603Z" fill="black"/>
<path opacity="0.1" d="M693.694 188.486C708.067 172.569 715.569 151.618 714.564 130.196C713.824 115.736 708.904 101.216 699.234 90.4456C695.014 85.7457 677.174 74.7257 671.484 71.9557C673.644 54.9657 685.264 45.1656 676.764 30.6356C665.974 12.2056 643.464 1.39566 622.334 4.50566C614.772 5.65742 607.552 8.4419 601.174 12.6656C593.874 6.28565 583.884 2.36565 574.154 0.875654C556.466 -1.83675 538.077 1.87285 522.404 10.4627C529.707 9.48642 537.111 9.54717 544.396 10.6431C554.126 12.1331 564.116 16.0531 571.416 22.4331C577.796 18.2531 596.287 7.5825 592.576 14.2731C576.715 42.8706 595.462 56.9059 647.006 40.4031C655.214 37.7753 644.24 51.5538 631.284 67.9085C619.307 83.0268 632.562 104.858 651.511 101.264C660.766 99.5079 668.054 98.6289 669.476 100.213C679.146 110.983 714.129 127.971 684.806 139.963C655.484 151.956 678.216 182.593 663.936 198.253C659.405 203.227 670.76 214.592 674.969 222.424C685.349 221.621 704.87 224.823 704.484 219.956C713.004 215.606 687.244 195.566 693.694 188.486Z" fill="black"/>
<path d="M481.473 301.76H562.906C563.171 301.76 563.425 301.655 563.613 301.467C563.8 301.28 563.906 301.025 563.906 300.76C563.906 300.495 563.8 300.241 563.613 300.053C563.425 299.866 563.171 299.76 562.906 299.76H481.473C481.207 299.76 480.953 299.866 480.766 300.053C480.578 300.241 480.473 300.495 480.473 300.76C480.473 301.025 480.578 301.28 480.766 301.467C480.953 301.655 481.207 301.76 481.473 301.76Z" fill="#3F3D56"/>
<path d="M591.724 381.287C575.213 359.326 565.67 334.768 565.358 306.77C564.826 305.261 564.914 303.603 565.603 302.159C566.292 300.715 567.526 299.603 569.034 299.068L625.311 279.155C626.82 278.624 628.478 278.712 629.922 279.401C631.366 280.09 632.477 281.324 633.013 282.831L659.379 357.349C659.911 358.858 659.823 360.516 659.134 361.96C658.445 363.404 657.211 364.516 655.703 365.051L599.426 384.963C597.917 385.495 596.259 385.407 594.815 384.718C593.371 384.029 592.259 382.795 591.724 381.287Z" fill="#E6E6E6"/>
<path d="M588.077 357.252C578.147 347.212 573.896 329.305 571.126 309.346C570.628 307.933 570.711 306.38 571.356 305.027C572.002 303.675 573.157 302.634 574.569 302.133L622.935 285.02C624.348 284.521 625.901 284.604 627.253 285.249C628.605 285.895 629.646 287.05 630.148 288.462L653.61 354.773C654.109 356.186 654.026 357.739 653.38 359.091C652.735 360.444 651.579 361.484 650.167 361.986L620.206 372.587C613.912 374.806 606.994 374.438 600.971 371.563C594.947 368.688 590.31 363.542 588.077 357.252Z" fill="white"/>
<path d="M630.795 324.184L593.12 337.633C592.823 337.739 592.508 337.786 592.193 337.77C591.878 337.755 591.569 337.677 591.284 337.542C590.998 337.408 590.743 337.218 590.531 336.984C590.319 336.75 590.156 336.477 590.05 336.18C589.944 335.883 589.897 335.568 589.913 335.253C589.929 334.938 590.007 334.629 590.142 334.344C590.277 334.059 590.467 333.804 590.701 333.592C590.935 333.381 591.209 333.217 591.506 333.112L629.181 319.663C629.781 319.45 630.44 319.483 631.015 319.756C631.59 320.029 632.033 320.519 632.246 321.118C632.46 321.717 632.428 322.376 632.155 322.951C631.883 323.526 631.394 323.97 630.795 324.184Z" fill="#0CD3DD"/>
<path d="M596.983 322.277L588.694 325.236C588.398 325.342 588.083 325.388 587.768 325.372C587.453 325.357 587.145 325.279 586.86 325.144C586.575 325.009 586.319 324.819 586.108 324.586C585.896 324.352 585.733 324.079 585.627 323.782C585.521 323.485 585.475 323.17 585.49 322.856C585.506 322.541 585.584 322.232 585.719 321.947C585.854 321.662 586.043 321.407 586.277 321.195C586.511 320.984 586.784 320.821 587.081 320.715L595.369 317.756C595.666 317.65 595.981 317.603 596.296 317.618C596.611 317.634 596.92 317.711 597.205 317.846C597.49 317.981 597.746 318.171 597.958 318.405C598.169 318.638 598.333 318.912 598.439 319.209C598.545 319.506 598.592 319.821 598.576 320.136C598.56 320.451 598.482 320.76 598.347 321.045C598.212 321.33 598.022 321.585 597.788 321.797C597.554 322.008 597.28 322.171 596.983 322.277Z" fill="#0CD3DD"/>
<path d="M637.89 344.06L600.214 357.508C599.917 357.615 599.602 357.661 599.287 357.646C598.972 357.63 598.663 357.553 598.378 357.418C598.093 357.283 597.838 357.093 597.626 356.86C597.414 356.626 597.251 356.352 597.145 356.055C597.039 355.758 596.992 355.443 597.008 355.128C597.024 354.813 597.101 354.504 597.237 354.22C597.372 353.935 597.562 353.679 597.796 353.468C598.03 353.256 598.303 353.093 598.601 352.987L636.276 339.539C636.876 339.325 637.536 339.358 638.111 339.63C638.686 339.903 639.13 340.393 639.344 340.993C639.558 341.592 639.525 342.252 639.252 342.827C638.979 343.403 638.489 343.846 637.89 344.06Z" fill="#0CD3DD"/>
<path d="M634.343 334.122L596.667 347.57C596.37 347.677 596.055 347.723 595.74 347.708C595.425 347.693 595.116 347.615 594.831 347.48C594.546 347.345 594.29 347.155 594.079 346.922C593.867 346.688 593.703 346.415 593.597 346.118C593.491 345.821 593.445 345.505 593.461 345.19C593.476 344.875 593.554 344.567 593.689 344.282C593.825 343.997 594.015 343.741 594.249 343.53C594.483 343.318 594.756 343.155 595.053 343.049L632.729 329.601C633.328 329.388 633.988 329.421 634.562 329.694C635.137 329.967 635.58 330.456 635.794 331.055C636.008 331.655 635.975 332.314 635.703 332.889C635.431 333.464 634.941 333.908 634.343 334.122Z" fill="#0CD3DD"/>
<path d="M568.557 314.76C574.08 314.76 578.557 310.283 578.557 304.76C578.557 299.237 574.08 294.76 568.557 294.76C563.034 294.76 558.557 299.237 558.557 304.76C558.557 310.283 563.034 314.76 568.557 314.76Z" fill="#0CD3DD"/>
<path d="M495.642 49.7603H414.209C413.944 49.7603 413.689 49.6549 413.502 49.4674C413.314 49.2798 413.209 49.0255 413.209 48.7603C413.209 48.495 413.314 48.2407 413.502 48.0531C413.689 47.8656 413.944 47.7603 414.209 47.7603H495.642C495.907 47.7603 496.161 47.8656 496.349 48.0531C496.536 48.2407 496.642 48.495 496.642 48.7603C496.642 49.0255 496.536 49.2798 496.349 49.4674C496.161 49.6549 495.907 49.7603 495.642 49.7603H495.642Z" fill="#3F3D56"/>
<path d="M308.903 85.2317C315.975 58.6821 329.394 36.0081 351.219 18.4679C352.077 17.1176 353.436 16.1628 354.997 15.8129C356.558 15.463 358.194 15.7466 359.546 16.6016L409.968 48.5599C411.318 49.4179 412.273 50.7765 412.623 52.3376C412.973 53.8988 412.689 55.535 411.834 56.8872L369.518 123.651C368.66 125.001 367.301 125.956 365.74 126.306C364.179 126.656 362.543 126.372 361.19 125.517L310.769 93.5591C309.419 92.7011 308.464 91.3425 308.114 89.7813C307.764 88.2202 308.048 86.584 308.903 85.2317Z" fill="#E6E6E6"/>
<path d="M325.551 67.5177C327.314 53.5065 338.771 39.1025 352.756 24.5959C353.56 23.3312 354.832 22.437 356.294 22.1093C357.756 21.7816 359.289 22.0472 360.555 22.848L403.888 50.3134C405.153 51.117 406.047 52.3894 406.375 53.8514C406.703 55.3135 406.437 56.8459 405.636 58.1124L367.98 117.523C367.177 118.788 365.904 119.682 364.442 120.01C362.98 120.337 361.448 120.072 360.181 119.271L333.337 102.257C327.704 98.6772 323.721 93.0096 322.261 86.4971C320.802 79.9845 321.985 73.1589 325.551 67.5177Z" fill="white"/>
<path d="M377.944 80.6865L344.096 59.3643C343.829 59.1965 343.597 58.9776 343.415 58.7203C343.233 58.463 343.103 58.1723 343.033 57.8647C342.963 57.5572 342.954 57.2389 343.007 56.928C343.06 56.617 343.174 56.3197 343.342 56.0528C343.51 55.7859 343.729 55.5548 343.987 55.3726C344.244 55.1905 344.535 55.0608 344.843 54.9912C345.151 54.9215 345.469 54.9131 345.78 54.9666C346.091 55.02 346.388 55.1342 346.655 55.3026L380.502 76.6247C381.041 76.964 381.423 77.5034 381.564 78.1242C381.705 78.745 381.593 79.3963 381.254 79.9349C380.915 80.4736 380.375 80.8553 379.754 80.9963C379.134 81.1372 378.482 81.0258 377.944 80.6865Z" fill="#0CD3DD"/>
<path d="M358.558 52.9178L351.112 48.2269C350.574 47.8873 350.193 47.348 350.052 46.7276C349.912 46.1071 350.023 45.4563 350.362 44.918C350.701 44.3798 351.24 43.9981 351.861 43.857C352.481 43.7158 353.132 43.8267 353.67 44.1652L361.117 48.856C361.656 49.1953 362.037 49.7347 362.178 50.3555C362.319 50.9763 362.208 51.6276 361.868 52.1662C361.529 52.7049 360.99 53.0866 360.369 53.2276C359.748 53.3685 359.097 53.2571 358.558 52.9178Z" fill="#0CD3DD"/>
<path d="M366.695 98.5429L332.847 77.2207C332.309 76.8811 331.928 76.3418 331.788 75.7213C331.647 75.1009 331.759 74.4501 332.098 73.9118C332.437 73.3736 332.976 72.9919 333.596 72.8507C334.216 72.7096 334.867 72.8204 335.406 73.1589L369.254 94.4811C369.521 94.649 369.752 94.8678 369.935 95.1251C370.117 95.3824 370.247 95.6731 370.317 95.9807C370.387 96.2882 370.396 96.6065 370.343 96.9175C370.289 97.2284 370.175 97.5258 370.007 97.7926C369.839 98.0595 369.62 98.2906 369.363 98.4728C369.105 98.6549 368.814 98.7846 368.507 98.8543C368.199 98.9239 367.881 98.9323 367.57 98.8789C367.259 98.8254 366.962 98.7112 366.695 98.5429Z" fill="#0CD3DD"/>
<path d="M372.319 89.6146L338.471 68.2924C337.933 67.9531 337.551 67.4138 337.41 66.793C337.269 66.1722 337.381 65.5209 337.72 64.9822C338.059 64.4436 338.599 64.0618 339.219 63.9209C339.84 63.78 340.492 63.8914 341.03 64.2307L374.878 85.5529C375.145 85.7207 375.376 85.9396 375.559 86.1969C375.741 86.4542 375.871 86.7449 375.941 87.0525C376.011 87.36 376.02 87.6783 375.967 87.9892C375.914 88.3001 375.8 88.5975 375.632 88.8644C375.463 89.1313 375.244 89.3624 374.987 89.5445C374.729 89.7267 374.439 89.8563 374.131 89.926C373.823 89.9957 373.505 90.004 373.194 89.9506C372.883 89.8972 372.586 89.783 372.319 89.6146Z" fill="#0CD3DD"/>
<path d="M408.557 62.7603C414.08 62.7603 418.557 58.2831 418.557 52.7603C418.557 47.2374 414.08 42.7603 408.557 42.7603C403.034 42.7603 398.557 47.2374 398.557 52.7603C398.557 58.2831 403.034 62.7603 408.557 62.7603Z" fill="#0CD3DD"/>
<path d="M320.121 178.479H214.244C213.638 178.479 213.058 178.238 212.629 177.81C212.201 177.382 211.961 176.801 211.961 176.196C211.961 175.59 212.201 175.009 212.629 174.581C213.058 174.153 213.638 173.912 214.244 173.912H320.121C320.726 173.912 321.307 174.153 321.735 174.581C322.163 175.009 322.404 175.59 322.404 176.196C322.404 176.801 322.163 177.382 321.735 177.81C321.307 178.238 320.726 178.479 320.121 178.479Z" fill="#0CD3DD"/>
<path d="M373.717 199.353H214.244C213.944 199.354 213.646 199.295 213.369 199.181C213.091 199.066 212.839 198.898 212.626 198.686C212.414 198.474 212.245 198.222 212.13 197.945C212.015 197.667 211.956 197.37 211.956 197.07C211.956 196.77 212.015 196.472 212.13 196.195C212.245 195.918 212.414 195.666 212.626 195.454C212.839 195.241 213.091 195.073 213.369 194.959C213.646 194.844 213.944 194.786 214.244 194.787H373.717C374.322 194.788 374.901 195.029 375.329 195.457C375.756 195.885 375.996 196.465 375.996 197.07C375.996 197.674 375.756 198.255 375.329 198.683C374.901 199.111 374.322 199.352 373.717 199.353Z" fill="#F2F2F2"/>
<path d="M373.72 215.657H214.24C213.634 215.657 213.053 215.898 212.625 216.327C212.196 216.755 211.955 217.336 211.955 217.942C211.955 218.548 212.196 219.129 212.625 219.558C213.053 219.987 213.634 220.227 214.24 220.227H373.72C374.326 220.227 374.908 219.987 375.336 219.558C375.765 219.129 376.005 218.548 376.005 217.942C376.005 217.336 375.765 216.755 375.336 216.327C374.908 215.898 374.326 215.657 373.72 215.657Z" fill="#F2F2F2"/>
<path d="M373.717 241.101H214.244C213.944 241.102 213.646 241.043 213.369 240.929C213.091 240.814 212.839 240.646 212.626 240.434C212.414 240.222 212.245 239.97 212.13 239.693C212.015 239.416 211.956 239.118 211.956 238.818C211.956 238.518 212.015 238.22 212.13 237.943C212.245 237.666 212.414 237.414 212.626 237.202C212.839 236.99 213.091 236.822 213.369 236.707C213.646 236.593 213.944 236.534 214.244 236.535H373.717C374.322 236.536 374.901 236.777 375.329 237.205C375.756 237.633 375.996 238.213 375.996 238.818C375.996 239.423 375.756 240.003 375.329 240.431C374.901 240.859 374.322 241.1 373.717 241.101Z" fill="#F2F2F2"/>
<path d="M86.0453 288.697L90.8501 249.16L77.7731 248.22L74.8399 289.678C74.3426 290.718 74.129 291.87 74.2209 293.019C74.3127 294.167 74.7068 295.271 75.363 296.218C76.0193 297.165 76.9143 297.922 77.9574 298.411C79.0005 298.901 80.1545 299.106 81.3024 299.005C82.4502 298.905 83.551 298.502 84.4932 297.839C85.4353 297.176 86.1852 296.275 86.6669 295.228C87.1485 294.181 87.3447 293.026 87.2355 291.879C87.1263 290.732 86.7157 289.634 86.0453 288.697L86.0453 288.697Z" fill="#A0616A"/>
<path d="M102.838 193.64C100.406 193.308 97.933 193.8 95.8133 195.037C93.6936 196.274 92.049 198.185 91.1418 200.465C85.6452 214.282 75.0423 241.393 75.6181 243.503C76.3934 246.344 77.1684 246.602 75.1022 247.636C73.036 248.669 70.1945 246.862 73.036 248.669C75.8775 250.477 72.2615 250.994 73.5531 252.285C74.8448 253.576 96.2837 256.414 96.2837 256.414C96.2837 256.414 91.5493 242.018 93.1401 239.918C94.7309 237.817 99.8972 240.399 97.3139 237.817C94.7305 235.234 92.325 234.521 95.3356 233.328C98.3462 232.134 100.983 230.815 100.983 230.815L111.277 209.276C112.024 207.713 112.391 205.996 112.348 204.265C112.306 202.533 111.855 200.836 111.032 199.312C110.21 197.788 109.039 196.48 107.615 195.494C106.19 194.508 104.554 193.873 102.838 193.64Z" fill="#E6E6E6"/>
<path d="M121.63 462.438L128.77 462.437L132.166 434.897H121.628L121.63 462.438Z" fill="#A0616A"/>
<path d="M121.378 469.886L143.335 469.885V469.608C143.335 467.341 142.435 465.168 140.832 463.565C139.229 461.962 137.055 461.062 134.789 461.062H134.788L130.778 458.019L123.295 461.062L121.378 461.062L121.378 469.886Z" fill="#2F2E41"/>
<path d="M6.89905 414.859L9.82105 421.374L36.341 413.204L32.028 403.589L6.89905 414.859Z" fill="#A0616A"/>
<path d="M0 417.677L8.98466 437.712L9.23801 437.598C11.3061 436.671 12.921 434.96 13.7276 432.841C14.5342 430.723 14.4664 428.372 13.5392 426.303L13.5389 426.303L14.6743 421.398L8.83571 415.816L8.05142 414.067L0 417.677Z" fill="#2F2E41"/>
<path d="M114.696 176.869C122.216 176.869 128.313 170.772 128.313 163.251C128.313 155.731 122.216 149.634 114.696 149.634C107.175 149.634 101.078 155.731 101.078 163.251C101.078 170.772 107.175 176.869 114.696 176.869Z" fill="#A0616A"/>
<path d="M138.897 289.43L87.4392 287.797C87.4392 287.797 76.5507 308.867 83.2201 322.019C89.8896 335.171 84.6094 372.431 84.6094 372.431L18.0114 406.233L23.7289 419.301C23.7289 419.301 38.4313 418.485 40.8817 416.034C43.1508 414.043 46.0336 412.89 49.0497 412.767C50.6833 412.767 98.8744 391.53 98.8744 391.53L111.395 355.257L124.099 404.805L117.869 448.834L132.74 449.225C132.74 449.225 137.869 446.648 136.341 442.776C134.813 438.905 134.023 437.219 137.686 433.978C141.348 430.737 148.44 381.652 148.44 381.652L140.028 325.012C140.028 325.012 135.018 323.602 139.251 319.779C143.484 315.955 139.158 311.394 139.158 311.394C139.158 311.394 142.739 306.33 139.111 307.143C135.484 307.956 138.897 287.797 138.897 287.797" fill="#2F2E41"/>
<path d="M127.397 185.877L108.397 184.7L105.074 190.199C105.074 190.199 97.5945 189.781 99.2281 192.232C100.862 194.682 99.9122 192.676 97.5281 194.496C95.1441 196.316 91.9248 196.639 93.5344 198.111C93.7692 198.325 93.6744 198.96 93.3412 199.889C86.7667 217.716 85.149 236.992 88.66 255.666C89.7766 261.35 90.4886 265.498 90.2433 265.743C89.4265 266.56 85.3425 265.743 87.7929 268.194C90.2433 270.644 94.3273 268.194 89.4265 273.095C84.5257 277.995 74.2353 298.749 86.1593 300.049C98.0833 301.349 142.518 298.415 141.702 295.148L135.984 272.278L131.328 206.472L126.662 193.904L127.397 185.877Z" fill="#E6E6E6"/>
<path d="M128.39 301.305L120.452 262.277L107.748 265.519L118.069 305.778C117.926 306.921 118.087 308.082 118.538 309.143C118.988 310.203 119.711 311.126 120.633 311.817C121.554 312.508 122.643 312.943 123.787 313.078C124.931 313.213 126.091 313.042 127.148 312.584C128.206 312.126 129.123 311.396 129.807 310.469C130.491 309.542 130.918 308.451 131.044 307.305C131.17 306.16 130.991 305.002 130.525 303.948C130.059 302.894 129.322 301.982 128.39 301.305H128.39Z" fill="#A0616A"/>
<path d="M114.276 205.814C111.864 206.267 109.674 207.516 108.054 209.359C106.434 211.203 105.477 213.536 105.337 215.986C104.49 230.832 102.999 259.904 104.213 261.724C105.846 264.174 106.663 264.174 105.029 265.808C103.396 267.442 100.129 266.625 103.396 267.442C106.663 268.258 103.396 269.892 105.029 270.709C106.663 271.526 127.9 267.442 127.9 267.442C127.9 267.442 118.858 255.28 119.703 252.784C120.548 250.289 126.266 251.106 122.999 249.472C119.732 247.838 117.224 247.922 119.703 245.838C122.182 243.754 124.267 241.669 124.267 241.669L127.225 217.981C127.44 216.262 127.245 214.517 126.658 212.888C126.07 211.259 125.106 209.791 123.844 208.605C122.581 207.419 121.057 206.548 119.394 206.063C117.732 205.578 115.978 205.493 114.276 205.814Z" fill="#E6E6E6"/>
<path d="M118.801 176.373C117.086 177.68 115.228 178.787 113.262 179.674C111.278 180.562 109.05 180.746 106.947 180.197C105.902 179.868 104.946 179.305 104.151 178.552C103.356 177.799 102.743 176.874 102.359 175.848C101.608 173.798 95.3405 171.402 96.523 169.566C97.1179 168.835 97.6104 168.027 97.9869 167.164C98.1582 166.726 98.153 166.238 97.9725 165.803C97.7919 165.369 97.45 165.021 97.0186 164.833C96.6415 164.779 96.2569 164.852 95.9267 165.042C95.5965 165.233 95.3397 165.528 95.1977 165.882C94.932 166.597 94.8348 167.364 94.9137 168.123C94.309 167.617 93.8847 166.928 93.7043 166.16C93.5239 165.392 93.597 164.587 93.9129 163.864L91.7947 162.8C93.623 162.088 100.581 159.203 99.0345 157.996C97.7263 156.974 93.5153 153.655 93.9854 152.459C94.5347 151.294 95.3052 150.247 96.2541 149.376C98.08 147.469 100.071 145.468 102.656 144.934C104.865 144.477 107.128 145.176 109.298 145.793C111.468 146.409 113.815 146.946 115.94 146.188C118.065 145.431 119.677 142.851 118.614 140.862C119.427 140.855 120.226 141.081 120.914 141.514C121.603 141.947 122.152 142.569 122.498 143.306L122.862 139.956C124.486 140.382 125.987 141.185 127.244 142.299C128.403 143.505 128.896 145.529 127.885 146.862C126.766 148.339 124.262 148.507 123.599 150.239C123.017 151.758 124.277 153.293 125.33 154.534C126.382 155.774 127.302 157.699 126.198 158.893C125.284 159.881 123.679 159.567 122.377 159.905C120.411 160.415 119.203 162.486 118.946 164.5C118.848 166.529 119 168.562 119.398 170.555C119.792 172.565 119.475 174.649 118.501 176.451" fill="#2F2E41"/>
<path d="M127.484 167.956C126.092 167.956 124.549 167.416 124.549 166.023V157.18C124.549 155.788 126.092 155.956 127.484 155.956C130.955 153.629 133.896 157.021 134.013 161.602C133.973 166.543 131.256 169.702 127.484 167.956Z" fill="#3F3D56"/>
<path d="M125.546 154.659H121.101C119.615 154.659 113.778 154.556 113.484 155.956C105.64 154.566 102.558 154.529 98.0029 157.109C97.4614 157.109 96.942 157.324 96.559 157.707C96.1761 158.09 95.9609 158.61 95.9609 159.151C95.9609 159.693 96.1761 160.212 96.559 160.595C96.942 160.978 97.4614 161.193 98.0029 161.193L112.484 160.956L118.014 165.458C118.014 165.863 118.094 166.265 118.249 166.639C118.405 167.014 118.632 167.354 118.918 167.64C119.205 167.927 119.545 168.154 119.92 168.31C120.294 168.465 120.696 168.544 121.101 168.544H125.546C125.952 168.544 126.353 168.465 126.727 168.31C127.102 168.154 127.442 167.927 127.729 167.64C128.015 167.354 128.243 167.014 128.398 166.639C128.553 166.265 128.633 165.863 128.633 165.458C127.209 162.707 126.973 160.106 128.633 157.746C128.633 157.34 128.553 156.939 128.398 156.564C128.243 156.19 128.015 155.85 127.729 155.563C127.442 155.276 127.102 155.049 126.727 154.894C126.353 154.739 125.952 154.659 125.546 154.659Z" fill="#0CD3DD"/>
<path d="M526.324 162.167C523.684 162.167 520.792 162.072 517.649 161.882C514.505 161.692 511.362 161.501 508.219 161.311C505.076 161.058 502.184 160.931 499.544 160.931C498.286 160.931 497.123 160.994 496.055 161.121C495.049 161.184 494.2 161.343 493.509 161.597C492.503 160.519 492 159.187 492 157.602C492 156.651 492.22 155.637 492.66 154.559C493.1 153.481 493.666 152.562 494.357 151.801C496.935 148.695 499.512 145.493 502.09 142.196C504.667 138.836 507.056 135.476 509.256 132.115C511.457 128.755 513.342 125.522 514.914 122.415C516.549 119.245 517.649 116.297 518.214 113.571C519.157 113.19 519.912 113 520.478 113C521.735 113 522.898 113.729 523.967 115.187C525.035 116.582 525.507 118.199 525.381 120.037C525.318 122.7 524.469 125.49 522.835 128.406C521.201 131.259 519.157 134.176 516.706 137.156C514.254 140.072 511.708 142.893 509.068 145.62C506.427 148.282 504.039 150.692 501.901 152.847C505.044 153.101 508.03 153.164 510.859 153.037C513.688 152.911 516.423 152.847 519.063 152.847C521.138 152.847 523.212 152.816 525.287 152.752C527.424 152.689 529.436 152.594 531.322 152.467C533.271 152.277 534.968 152.118 536.414 151.991C537.922 151.801 539.023 151.579 539.714 151.326C540.091 151.833 540.406 152.467 540.657 153.228C540.909 153.988 541.034 154.718 541.034 155.415C541.034 157.507 540.374 159.029 539.054 159.98C537.797 160.931 536.068 161.533 533.868 161.787C531.73 162.04 529.216 162.167 526.324 162.167ZM521.798 178.62C520.855 178.62 520.006 178.429 519.252 178.049C518.56 177.669 517.994 177.13 517.554 176.432C517.177 175.671 516.989 174.72 516.989 173.579C516.989 173.199 517.083 172.47 517.272 171.392C517.46 170.251 517.68 169.078 517.932 167.873L522.364 145.715C524.438 143.052 526.261 140.452 527.833 137.916C529.404 135.38 530.787 132.971 531.982 130.689H535.188L526.041 177.859C525.475 178.112 524.847 178.303 524.155 178.429C523.464 178.556 522.678 178.62 521.798 178.62Z" fill="white"/>
<path d="M565.171 179C561.399 179 558.288 178.207 555.836 176.622C553.384 175.037 551.561 172.692 550.367 169.585C549.235 166.478 548.638 162.579 548.575 157.888C548.512 151.674 549.172 145.905 550.555 140.579C551.938 135.19 553.919 130.467 556.496 126.409C559.136 122.352 562.248 119.213 565.831 116.994C569.477 114.712 573.501 113.571 577.901 113.571C581.736 113.571 584.848 114.363 587.237 115.948C589.688 117.533 591.511 119.879 592.706 122.986C593.9 126.092 594.498 129.991 594.498 134.683C594.56 140.833 593.9 146.602 592.517 151.991C591.134 157.38 589.123 162.104 586.482 166.161C583.905 170.156 580.793 173.294 577.147 175.576C573.564 177.859 569.572 179 565.171 179ZM567.057 172.818C569.006 172.818 570.829 172.121 572.526 170.726C574.224 169.268 575.732 167.271 577.053 164.735C578.436 162.135 579.63 159.156 580.636 155.795C581.642 152.435 582.396 148.853 582.899 145.049C583.402 141.182 583.653 137.219 583.653 133.161C583.653 128.66 583.056 125.331 581.862 123.176C580.667 120.957 578.656 119.847 575.827 119.847C573.878 119.847 572.086 120.576 570.452 122.035C568.817 123.429 567.309 125.427 565.926 128.026C564.543 130.562 563.38 133.542 562.437 136.965C561.494 140.326 560.739 143.971 560.174 147.902C559.671 151.833 559.419 155.859 559.419 159.98C559.419 164.354 560.016 167.588 561.211 169.68C562.468 171.772 564.417 172.818 567.057 172.818Z" fill="white"/>
<path d="M630.29 162.167C627.649 162.167 624.758 162.072 621.614 161.882C618.471 161.692 615.328 161.501 612.185 161.311C609.042 161.058 606.15 160.931 603.509 160.931C602.252 160.931 601.089 160.994 600.021 161.121C599.015 161.184 598.166 161.343 597.474 161.597C596.469 160.519 595.966 159.187 595.966 157.602C595.966 156.651 596.186 155.637 596.626 154.559C597.066 153.481 597.632 152.562 598.323 151.801C600.901 148.695 603.478 145.493 606.055 142.196C608.633 138.836 611.022 135.476 613.222 132.115C615.422 128.755 617.308 125.522 618.88 122.415C620.514 119.245 621.614 116.297 622.18 113.571C623.123 113.19 623.878 113 624.443 113C625.701 113 626.864 113.729 627.932 115.187C629.001 116.582 629.472 118.199 629.347 120.037C629.284 122.7 628.435 125.49 626.801 128.406C625.166 131.259 623.123 134.176 620.671 137.156C618.22 140.072 615.674 142.893 613.033 145.62C610.393 148.282 608.004 150.692 605.867 152.847C609.01 153.101 611.996 153.164 614.825 153.037C617.654 152.911 620.389 152.847 623.029 152.847C625.103 152.847 627.178 152.816 629.252 152.752C631.39 152.689 633.402 152.594 635.287 152.467C637.236 152.277 638.934 152.118 640.379 151.991C641.888 151.801 642.988 151.579 643.68 151.326C644.057 151.833 644.371 152.467 644.623 153.228C644.874 153.988 645 154.718 645 155.415C645 157.507 644.34 159.029 643.02 159.98C641.762 160.931 640.034 161.533 637.833 161.787C635.696 162.04 633.181 162.167 630.29 162.167ZM625.763 178.62C624.821 178.62 623.972 178.429 623.217 178.049C622.526 177.669 621.96 177.13 621.52 176.432C621.143 175.671 620.954 174.72 620.954 173.579C620.954 173.199 621.049 172.47 621.237 171.392C621.426 170.251 621.646 169.078 621.897 167.873L626.329 145.715C628.404 143.052 630.227 140.452 631.798 137.916C633.37 135.38 634.753 132.971 635.948 130.689H639.154L630.007 177.859C629.441 178.112 628.812 178.303 628.121 178.429C627.429 178.556 626.644 178.62 625.763 178.62Z" fill="white"/>
</g>
<defs>
<clipPath id="clip0_806_64">
<rect width="806.352" height="520.956" fill="white"/>
</clipPath>
</defs>
</svg>
